<svg width="20" height="29" viewBox="0 0 20 29" fill="none" xmlns="http://www.w3.org/2000/svg">
<path fill-rule="evenodd" clip-rule="evenodd" d="M0 10.15C3.95203e-08 7.45805 1.05357 4.87636 2.92893 2.97287C4.8043 1.06937 7.34784 0 10 0C12.6522 0 15.1957 1.06937 17.0711 2.97287C18.9464 4.87636 20 7.45805 20 10.15V18.85C20 20.1829 19.7413 21.5028 19.2388 22.7342C18.7362 23.9657 17.9997 25.0846 17.0711 26.0271C16.1425 26.9696 15.0401 27.7173 13.8268 28.2274C12.6136 28.7375 11.3132 29 10 29C8.68678 29 7.38642 28.7375 6.17317 28.2274C4.95991 27.7173 3.85752 26.9696 2.92893 26.0271C2.00035 25.0846 1.26375 23.9657 0.761204 22.7342C0.258657 21.5028 -1.95685e-08 20.1829 0 18.85V10.15ZM11.4286 7.25C11.4286 6.86544 11.2781 6.49662 11.0102 6.2247C10.7422 5.95277 10.3789 5.8 10 5.8C9.62112 5.8 9.25776 5.95277 8.98985 6.2247C8.72194 6.49662 8.57143 6.86544 8.57143 7.25V13.05C8.57143 13.4346 8.72194 13.8034 8.98985 14.0753C9.25776 14.3472 9.62112 14.5 10 14.5C10.3789 14.5 10.7422 14.3472 11.0102 14.0753C11.2781 13.8034 11.4286 13.4346 11.4286 13.05V7.25Z" fill="white"/>
</svg>
